GIL04_fast2_ik
nRows=3
nColumns=375

# SIMM Motion File Header:
name GIL04_fast2_ik
datacolumns 375
datarows 3
otherdata 1
range 0.10833000 0.12500000
endheader
time	pelvis_tx	pelvis_ty	pelvis_tz	pelvis_tilt	pelvis_list	pelvis_rotation	hip_flexion_r	hip_adduction_r	hip_rotation_r	knee_angle_r	ankle_angle_r	hip_flexion_l	hip_adduction_l	hip_rotation_l	knee_angle_l	ankle_angle_l	lumbar_extension	lumbar_bending	lumbar_rotation	subtalar_angle_r	mtp_angle_r	subtalar_angle_l	mtp_angle_l	asis_r_px	asis_r_py	asis_r_pz	asis_l_px	asis_l_py	asis_l_pz	midasis_px	midasis_py	midasis_pz	psis_r_px	psis_r_py	psis_r_pz	psis_l_px	psis_l_py	psis_l_pz	hip_r_px	hip_r_py	hip_r_pz	hip_l_px	hip_l_py	hip_l_pz	midhip_px	midhip_py	midhip_pz	epicondLat_r_px	epicondLat_r_py	epicondLat_r_pz	epicondMed_r_px	epicondMed_r_py	epicondMed_r_pz	thighwand_r_px	thighwand_r_py	thighwand_r_pz	upperleg1_r_px	upperleg1_r_py	upperleg1_r_pz	upperleg2_r_px	upperleg2_r_py	upperleg2_r_pz	malleolusLat_r_px	malleolusLat_r_py	malleolusLat_r_pz	malleolusMedv_r_px	malleolusMedv_r_py	malleolusMedv_r_pz	shankwand_r_px	shankwand_r_py	shankwand_r_pz	lowerleg1_r_px	lowerleg1_r_py	lowerleg1_r_pz	knee_r_px	knee_r_py	knee_r_pz	ankle_r_px	ankle_r_py	ankle_r_pz	toe_r_px	toe_r_py	toe_r_pz	epicondLat_l_px	epicondLat_l_py	epicondLat_l_pz	epicondMed_l_px	epicondMed_l_py	epicondMed_l_pz	thighwand_l_px	thighwand_l_py	thighwand_l_pz	upperleg1_l_px	upperleg1_l_py	upperleg1_l_pz	upperleg2_l_px	upperleg2_l_py	upperleg2_l_pz	malleolusLat_l_px	malleolusLat_l_py	malleolusLat_l_pz	malleolusMedv_l_px	malleolusMedv_l_py	malleolusMedv_l_pz	shankwand_l_px	shankwand_l_py	shankwand_l_pz	lowerleg1_l_px	lowerleg1_l_py	lowerleg1_l_pz	knee_l_px	knee_l_py	knee_l_pz	ankle_l_px	ankle_l_py	ankle_l_pz	toe_l_px	toe_l_py	toe_l_pz	subclavicle_r_px	subclavicle_r_py	subclavicle_r_pz	subclavicle_l_px	subclavicle_l_py	subclavicle_l_pz	neck_px	neck_py	neck_pz	sternalnotch_px	sternalnotch_py	sternalnotch_pz	xyphoidprocess_px	xyphoidprocess_py	xyphoidprocess_pz	midhip_tx	midhip_ty	midhip_tz	hip_r_tx	hip_r_ty	hip_r_tz	hip_l_tx	hip_l_ty	hip_l_tz	knee_r_tx	knee_r_ty	knee_r_tz	knee_l_tx	knee_l_ty	knee_l_tz	ankle_r_tx	ankle_r_ty	ankle_r_tz	ankle_l_tx	ankle_l_ty	ankle_l_tz	midasis_tx	midasis_ty	midasis_tz	asis_r_tx	asis_r_ty	asis_r_tz	asis_l_tx	asis_l_ty	asis_l_tz	psis_r_tx	psis_r_ty	psis_r_tz	psis_l_tx	psis_l_ty	psis_l_tz	epicondLat_r_tx	epicondLat_r_ty	epicondLat_r_tz	epicondLat_l_tx	epicondLat_l_ty	epicondLat_l_tz	epicondMed_r_tx	epicondMed_r_ty	epicondMed_r_tz	epicondMed_l_tx	epicondMed_l_ty	epicondMed_l_tz	malleolusLat_r_tx	malleolusLat_r_ty	malleolusLat_r_tz	malleolusLat_l_tx	malleolusLat_l_ty	malleolusLat_l_tz	malleolusMedv_r_tx	malleolusMedv_r_ty	malleolusMedv_r_tz	malleolusMedv_l_tx	malleolusMedv_l_ty	malleolusMedv_l_tz	neck_tx	neck_ty	neck_tz	subclavicle_r_tx	subclavicle_r_ty	subclavicle_r_tz	subclavicle_l_tx	subclavicle_l_ty	subclavicle_l_tz	sternalnotch_tx	sternalnotch_ty	sternalnotch_tz	xyphoidprocess_tx	xyphoidprocess_ty	xyphoidprocess_tz	thighwand_r_tx	thighwand_r_ty	thighwand_r_tz	thighwand_l_tx	thighwand_l_ty	thighwand_l_tz	upperleg1_r_tx	upperleg1_r_ty	upperleg1_r_tz	upperleg1_l_tx	upperleg1_l_ty	upperleg1_l_tz	upperleg2_r_tx	upperleg2_r_ty	upperleg2_r_tz	upperleg2_l_tx	upperleg2_l_ty	upperleg2_l_tz	shankwand_r_tx	shankwand_r_ty	shankwand_r_tz	shankwand_l_tx	shankwand_l_ty	shankwand_l_tz	lowerleg1_r_tx	lowerleg1_r_ty	lowerleg1_r_tz	lowerleg1_l_tx	lowerleg1_l_ty	lowerleg1_l_tz	toe_r_tx	toe_r_ty	toe_r_tz	toe_l_tx	toe_l_ty	toe_l_tz	ground_force_vx	ground_force_vy	ground_force_vz	ground_force_px	ground_force_py	ground_force_pz	ground_force_vx	ground_force_vy	ground_force_vz	ground_force_px	ground_force_py	ground_force_pz	ground_torque_x	ground_torque_y	ground_torque_z	ground_torque_x	ground_torque_y	ground_torque_z	ground_marker_px	ground_marker_py	ground_marker_pz	ground_marker_px	ground_marker_py	ground_marker_pz	ground_marker_px	ground_marker_py	ground_marker_pz	ground_marker_px	ground_marker_py	ground_marker_pz	ground_marker_px	ground_marker_py	ground_marker_pz	ground_marker_px	ground_marker_py	ground_marker_pz	ground_marker_px	ground_marker_py	ground_marker_pz	ground_marker_px	ground_marker_py	ground_marker_pz	ground_marker_px	ground_marker_py	ground_marker_pz	ground_marker_px	ground_marker_py	ground_marker_pz	ground_marker_px	ground_marker_py	ground_marker_pz	ground_marker_px	ground_marker_py	ground_marker_pz	ground_marker_px	ground_marker_py	ground_marker_pz	ground_marker_px	ground_marker_py	ground_marker_pz	ground_marker_px	ground_marker_py	ground_marker_pz	ground_marker_px	ground_marker_py	ground_marker_pz	ground_marker_px	ground_marker_py	ground_marker_pz	ground_marker_px	ground_marker_py	ground_marker_pz	ground_marker_px	ground_marker_py	ground_marker_pz	ground_marker_px	ground_marker_py	ground_marker_pz	ground_marker_px	ground_marker_py	ground_marker_pz	ground_marker_px	ground_marker_py	ground_marker_pz	ground_marker_px	ground_marker_py	ground_marker_pz	ground_marker_px	ground_marker_py	ground_marker_pz	ground_marker_px	ground_marker_py	ground_marker_pz	ground_marker_px	ground_marker_py	ground_marker_pz	ground_marker_px	ground_marker_py	ground_marker_pz	ground_marker_px	ground_marker_py	ground_marker_pz	ground_marker_px	ground_marker_py	ground_marker_pz	ground_marker_px	ground_marker_py	ground_marker_pz	ground_marker_px	ground_marker_py	ground_marker_pz	ground_marker_px	ground_marker_py	ground_marker_pz	ground_marker_px	ground_marker_py	ground_marker_pz	ground_marker_px	ground_marker_py	ground_marker_pz	ground_marker_px	ground_marker_py	ground_marker_pz	ground_marker_px	ground_marker_py	ground_marker_pz	ground_marker_px	ground_marker_py	ground_marker_pz
      0.10833000	      1.23661653	      0.70363272	     -0.17441252	     -2.18908351	     -7.35182101	     -0.59102921	     32.61484508	     10.92640225	      3.89990623	    -31.57148655	      1.51248637	    -16.87314893	     -7.79867992	    -10.82977791	    -35.28468503	    -26.04685512	     -1.03175687	     10.23375825	      0.53465486	      0.00000000	      0.00000000	      0.00000000	      0.00000000	      1.27405661	      0.70888500	     -0.08151335	      1.27662193	      0.67895983	     -0.26591546	      1.24682644	      0.70325594	     -0.17430800	      1.13918231	      0.76262016	     -0.16716032	      1.13860787	      0.74901334	     -0.22038010	      1.18289865	      0.66554207	     -0.10833215	      1.18355925	      0.64991043	     -0.22920271	      1.18322895	      0.65772625	     -0.16876743	      1.35358163	      0.36701076	     -0.08019465	      1.33326635	      0.36967080	     -0.17859615	      1.32005788	      0.45816430	      0.00129752	      1.31434349	      0.52754554	     -0.06610075	      1.35691468	      0.45683817	     -0.08632887	      1.34143296	      0.04934258	     -0.09083029	      1.33780317	      0.05863870	     -0.15010961	      1.33071926	      0.15362124	     -0.01728317	      1.33493968	      0.20881754	     -0.07877787	      1.34784178	      0.38147452	     -0.13371815	      1.34069661	      0.06195108	     -0.13321107	      1.44168643	      0.02873735	     -0.13153529	      1.06513918	      0.33552573	     -0.28072269	      1.08029042	      0.32048838	     -0.17880369	      1.22573512	      0.38386414	     -0.28507857	      1.19264565	      0.45479351	     -0.21703240	      1.15078726	      0.37787140	     -0.21113173	      0.80379472	      0.15249229	     -0.25600256	      0.81544350	      0.14617370	     -0.19371913	      0.93647885	      0.14054620	     -0.27757775	      0.94864588	      0.21948081	     -0.24814819	      1.07828840	      0.33719655	     -0.23472229	      0.82101828	      0.14883908	     -0.21281150	      0.80521408	      0.04901524	     -0.23439118	      1.19600828	      1.07249429	     -0.10582051	      1.20462197	      1.08405399	     -0.22031768	      1.12037374	      1.09024930	     -0.16703245	      1.20006562	      1.06611796	     -0.16691085	      1.27076661	      0.94048902	     -0.17360589	      1.18954100	      0.64704500	     -0.16486500	      1.18423000	      0.66236300	     -0.10238400	      1.18045400	      0.64656400	     -0.22716000	      1.34457300	      0.38318800	     -0.13697700	      1.07952800	      0.34460800	     -0.22578800	      1.34195900	      0.05579700	     -0.11640200	      0.81671500	      0.15611200	     -0.23374700	      1.24791500	      0.71731800	     -0.17471500	      1.25072800	      0.72908800	     -0.08175700	      1.24510200	      0.70554800	     -0.26767200	      1.10230600	      0.75804900	     -0.15368700	      1.10054300	      0.74800800	     -0.20735300	      1.35402000	      0.38246800	     -0.08737400	      1.07089700	      0.34726900	     -0.27496600	      1.34228500	      0.37971500	     -0.18351300	      1.09398600	      0.33614000	     -0.17037600	      1.34434400	      0.05787400	     -0.08305200	      0.81338800	      0.16217700	     -0.26754700	      1.34107600	      0.06300700	     -0.14428100	      0.81295300	      0.16499600	     -0.20581600	      1.12514700	      1.09715700	     -0.16608200	      1.20291600	      1.05474100	     -0.10098600	      1.20997200	      1.06283800	     -0.22900600	      1.20178700	      1.04763400	     -0.16877900	      1.23319700	      0.90669300	     -0.17497200	      1.32267700	      0.46334700	      0.00021400	      1.23889800	      0.41200400	     -0.28425100	      1.31719900	      0.53261100	     -0.06612300	      1.20134700	      0.47556000	     -0.21074800	      1.36262300	      0.46505000	     -0.08869100	      1.16114900	      0.39487200	     -0.20405500	      1.34979700	      0.16085800	     -0.01522000	      0.94431500	      0.14411800	     -0.27414600	      1.35272700	      0.21433200	     -0.07876400	      0.95351900	      0.22283800	     -0.25177900	      1.44063600	      0.03926600	     -0.12198000	      0.81366200	      0.06129000	     -0.23021300	    -96.86832662	    433.20359050	    -20.95184386	      1.35956335	      0.00000000	     -0.11832434	      0.00000000	      0.00000000	      0.00000000	      1.82533325	      0.00000000	     -0.22224718	      0.00000000	     -1.24485437	      0.00000000	      0.00000000	      0.00000000	      0.00000000	      1.18954086	      0.64704537	     -0.16486478	      1.18422961	      0.66236264	     -0.10238387	      1.18045378	      0.64656371	     -0.22715987	      1.34457254	      0.38318846	     -0.13697715	      1.07952762	      0.34460753	     -0.22578835	      1.34195936	      0.05579701	     -0.11640213	      0.81671464	      0.15611181	     -0.23374718	      1.24791539	      0.71731770	     -0.17471468	      1.25072837	      0.72908777	     -0.08175712	      1.24510241	      0.70554763	     -0.26767224	      1.10230601	      0.75804919	     -0.15368681	      1.10054350	      0.74800849	     -0.20735309	      1.35402024	      0.38246825	     -0.08737402	      1.07089746	      0.34726873	     -0.27496597	      1.34228480	      0.37971467	     -0.18351345	      1.09398592	      0.33613962	     -0.17037648	      1.34434402	      0.05787389	     -0.08305172	      0.81338811	      0.16217692	     -0.26754656	      1.34107578	      0.06300671	     -0.14428067	      0.81295288	      0.16499622	     -0.20581618	      1.12514651	      1.09715700	     -0.16608186	      1.20291603	      1.05474102	     -0.10098601	      1.20997214	      1.06283772	     -0.22900645	      1.20178676	      1.04763412	     -0.16877861	      1.23319709	      0.90669298	     -0.17497161	      1.32267654	      0.46334684	      0.00021370	      1.23889792	      0.41200364	     -0.28425142	      1.31719935	      0.53261113	     -0.06612290	      1.20134747	      0.47555965	     -0.21074791	      1.36262310	      0.46505031	     -0.08869113	      1.16114902	      0.39487246	     -0.20405480	      1.34979713	      0.16085838	     -0.01521974	      0.94431543	      0.14411756	     -0.27414575	      1.35272729	      0.21433219	     -0.07876392	      0.95351881	      0.22283839	     -0.25177914	      1.44063556	      0.03926561	     -0.12197977	      0.81366169	      0.06128958	     -0.23021254
      0.11667000	      1.24806247	      0.70530878	     -0.17405385	     -2.24707612	     -7.56494967	     -0.43788980	     31.79352592	     11.30708560	      4.06754297	    -31.86240087	      2.49346608	    -14.68620329	     -8.44142210	    -10.93062512	    -38.88698129	    -27.36569047	     -1.01172191	     10.52654581	      0.44156902	      0.00000000	      0.00000000	      0.00000000	      0.00000000	      1.28576910	      0.71084555	     -0.08127909	      1.28777855	      0.68025094	     -0.26557821	      1.25827212	      0.70491845	     -0.17397645	      1.15072886	      0.76445489	     -0.16674323	      1.14998727	      0.75065670	     -0.21991165	      1.19447794	      0.66753041	     -0.10768657	      1.19477959	      0.65146133	     -0.22850118	      1.19462877	      0.65949587	     -0.16809387	      1.36062322	      0.36632551	     -0.08091540	      1.33968797	      0.36938497	     -0.17917523	      1.32909095	      0.45792953	      0.00086604	      1.32401496	      0.52744681	     -0.06644310	      1.36532938	      0.45609424	     -0.08700872	      1.34178600	      0.04897343	     -0.09143749	      1.33794825	      0.05834614	     -0.15069164	      1.33373906	      0.15344809	     -0.01782845	      1.33868787	      0.20854818	     -0.07935512	      1.35480007	      0.38090297	     -0.13439653	      1.34102436	      0.06159680	     -0.13381340	      1.44188873	      0.02798624	     -0.13254388	      1.08775211	      0.33329391	     -0.28169862	      1.10407454	      0.31808116	     -0.17998670	      1.24642091	      0.38757569	     -0.28663106	      1.21114960	      0.45673064	     -0.21785827	      1.17220137	      0.37827033	     -0.21229332	      0.82206342	      0.15671058	     -0.25420610	      0.83416653	      0.15014997	     -0.19203442	      0.95418429	      0.14140988	     -0.27708052	      0.96862577	      0.22003634	     -0.24785498	      1.10131728	      0.33446063	     -0.23583496	      0.83961703	      0.15265900	     -0.21118378	      0.81891792	      0.05351103	     -0.23171377	      1.20790572	      1.07409701	     -0.10508570	      1.21642438	      1.08580783	     -0.21957462	      1.13223247	      1.09201604	     -0.16620194	      1.21189933	      1.06780189	     -0.16618866	      1.28246348	      0.94210914	     -0.17312539	      1.20117700	      0.64851600	     -0.16363900	      1.19620900	      0.66401100	     -0.10118700	      1.19194200	      0.64779200	     -0.22589300	      1.35154700	      0.38294400	     -0.13711900	      1.10215500	      0.34174800	     -0.22640700	      1.34225800	      0.05581300	     -0.11674000	      0.83474800	      0.16024600	     -0.23364500	      1.25968100	      0.71864800	     -0.17394600	      1.26286100	      0.73073400	     -0.08101200	      1.25650100	      0.70656100	     -0.26687900	      1.11418300	      0.75973900	     -0.15250700	      1.11204300	      0.74932500	     -0.20606400	      1.36137100	      0.38204100	     -0.08759200	      1.09303800	      0.34450500	     -0.27549200	      1.34767900	      0.37847600	     -0.18314500	      1.12184500	      0.32976900	     -0.17302600	      1.34476000	      0.05781900	     -0.08339400	      0.83163500	      0.16618100	     -0.26748800	      1.34119100	      0.06295700	     -0.14461800	      0.83214800	      0.16868800	     -0.20577500	      1.13679200	      1.09871700	     -0.16529400	      1.21486300	      1.05634900	     -0.10029400	      1.22166800	      1.06462300	     -0.22831700	      1.21361000	      1.04930300	     -0.16805600	      1.24534900	      0.90846400	     -0.17452100	      1.33204800	      0.46322400	      0.00023000	      1.25847700	      0.41414400	     -0.28569400	      1.32686200	      0.53203900	     -0.06582300	      1.22002900	      0.47527500	     -0.21152500	      1.37065600	      0.46356400	     -0.08868400	      1.18534000	      0.39383400	     -0.20627000	      1.35247500	      0.16062200	     -0.01561200	      0.96202700	      0.14441500	     -0.27384300	      1.35560800	      0.21413000	     -0.07918900	      0.97413600	      0.22249000	     -0.25225000	      1.44091700	      0.03896100	     -0.12230000	      0.82709000	      0.06510300	     -0.22870700	    -94.17153437	    444.36467316	    -20.55093360	      1.36224292	      0.00000000	     -0.11911816	      0.00000000	      0.00000000	      0.00000000	      1.82595313	      0.00000000	     -0.22216045	      0.00000000	     -1.30763562	      0.00000000	      0.00000000	      0.00000000	      0.00000000	      1.20117712	      0.64851570	     -0.16363886	      1.19620943	      0.66401076	     -0.10118698	      1.19194233	      0.64779180	     -0.22589323	      1.35154748	      0.38294408	     -0.13711947	      1.10215461	      0.34174803	     -0.22640750	      1.34225798	      0.05581290	     -0.11674043	      0.83474761	      0.16024648	     -0.23364528	      1.25968134	      0.71864784	     -0.17394553	      1.26286125	      0.73073447	     -0.08101228	      1.25650144	      0.70656127	     -0.26687878	      1.11418307	      0.75973868	     -0.15250736	      1.11204350	      0.74932539	     -0.20606357	      1.36137056	      0.38204136	     -0.08759230	      1.09303832	      0.34450507	     -0.27549204	      1.34767950	      0.37847611	     -0.18314539	      1.12184465	      0.32976943	     -0.17302649	      1.34476018	      0.05781918	     -0.08339430	      0.83163530	      0.16618143	     -0.26748815	      1.34119117	      0.06295696	     -0.14461796	      0.83214802	      0.16868839	     -0.20577469	      1.13679230	      1.09871662	     -0.16529386	      1.21486282	      1.05634880	     -0.10029395	      1.22166777	      1.06462288	     -0.22831652	      1.21360958	      1.04930317	     -0.16805600	      1.24534941	      0.90846407	     -0.17452122	      1.33204830	      0.46322370	      0.00023027	      1.25847697	      0.41414407	     -0.28569356	      1.32686198	      0.53203881	     -0.06582285	      1.22002852	      0.47527519	     -0.21152538	      1.37065613	      0.46356437	     -0.08868397	      1.18533969	      0.39383408	     -0.20626967	      1.35247481	      0.16062166	     -0.01561200	      0.96202660	      0.14441453	     -0.27384329	      1.35560822	      0.21412985	     -0.07918887	      0.97413629	      0.22248960	     -0.25224966	      1.44091690	      0.03896110	     -0.12229965	      0.82708985	      0.06510338	     -0.22870694
      0.12500000	      1.25915451	      0.70720452	     -0.17388587	     -2.37729803	     -7.71627457	     -0.30024080	     30.93269217	     11.59110141	      4.10013173	    -31.87234602	      3.36198572	    -12.28850945	     -8.97835066	    -11.14472091	    -42.44303490	    -28.09729659	     -0.94276588	     10.76779672	      0.32364323	      0.00000000	      0.00000000	      0.00000000	      0.00000000	      1.29710615	      0.71287901	     -0.08121940	      1.29857766	      0.68181133	     -0.26544444	      1.26936328	      0.70678789	     -0.17383282	      1.16199287	      0.76662143	     -0.16648427	      1.16108322	      0.75269022	     -0.21961538	      1.20563771	      0.66973403	     -0.10728980	      1.20559705	      0.65335744	     -0.22806348	      1.20561738	      0.66154573	     -0.16767664	      1.36649824	      0.36558621	     -0.08153446	      1.34529080	      0.36917050	     -0.17971816	      1.33687203	      0.45760738	      0.00049100	      1.33280506	      0.52730904	     -0.06669589	      1.37277691	      0.45526670	     -0.08750859	      1.34193950	      0.04863903	     -0.09246136	      1.33807136	      0.05817011	     -0.15168827	      1.33601387	      0.15312781	     -0.01867125	      1.34174286	      0.20822492	     -0.08013286	      1.36075696	      0.38034772	     -0.13497386	      1.34126191	      0.06133917	     -0.13481575	      1.44202542	      0.02742231	     -0.13369052	      1.11065956	      0.33161981	     -0.28271810	      1.12850936	      0.31632364	     -0.18127563	      1.26702144	      0.39213644	     -0.28866194	      1.22970051	      0.45934949	     -0.21905072	      1.19391716	      0.37937929	     -0.21373365	      0.84148567	      0.16072676	     -0.25147773	      0.85425677	      0.15398164	     -0.18945961	      0.97292690	      0.14249551	     -0.27605616	      0.98947449	      0.22082299	     -0.24714609	      1.12479393	      0.33231760	     -0.23704489	      0.85950924	      0.15634558	     -0.20868263	      0.83517640	      0.05784626	     -0.22833077	      1.21961644	      1.07598989	     -0.10443521	      1.22811165	      1.08786502	     -0.21890895	      1.14394794	      1.09411460	     -0.16549665	      1.22357908	      1.06978330	     -0.16554925	      1.29395573	      0.94399776	     -0.17270531	      1.21238700	      0.65028300	     -0.16258700	      1.20780400	      0.66586400	     -0.10017600	      1.20306100	      0.64935300	     -0.22482700	      1.35761400	      0.38275000	     -0.13716600	      1.12531500	      0.33949600	     -0.22699700	      1.34257900	      0.05584000	     -0.11701200	      0.85393800	      0.16429500	     -0.23335900	      1.27114800	      0.72017500	     -0.17329000	      1.27468400	      0.73248400	     -0.08036400	      1.26761200	      0.70786600	     -0.26621600	      1.12581300	      0.76180800	     -0.15137700	      1.12327300	      0.75105200	     -0.20484200	      1.36764500	      0.38159300	     -0.08768600	      1.11553900	      0.34229100	     -0.27595200	      1.35282600	      0.37808100	     -0.18309200	      1.14689400	      0.32608300	     -0.17444100	      1.34503100	      0.05778300	     -0.08365900	      0.85105300	      0.16999500	     -0.26726200	      1.34128200	      0.06296700	     -0.14485900	      0.85184800	      0.17294400	     -0.20555100	      1.14835200	      1.10061400	     -0.16456400	      1.22670200	      1.05826100	     -0.09972400	      1.23313200	      1.06661600	     -0.22775300	      1.22528300	      1.05123600	     -0.16747100	      1.25713500	      0.91045200	     -0.17412000	      1.34025200	      0.46296200	      0.00027100	      1.27785800	      0.41693300	     -0.28752100	      1.33567300	      0.53177400	     -0.06543900	      1.23885400	      0.47557000	     -0.21272100	      1.37789600	      0.46256300	     -0.08856300	      1.20739400	      0.39295800	     -0.20792300	      1.35435700	      0.16042800	     -0.01589600	      0.98092700	      0.14490400	     -0.27316000	      1.35746600	      0.21402800	     -0.07940800	      0.99538600	      0.22208600	     -0.25214700	      1.44108000	      0.03877800	     -0.12256400	      0.84284100	      0.06896700	     -0.22697800	    -88.90402279	    451.66786189	    -19.68691281	      1.36490649	      0.00000000	     -0.11988026	      0.00000000	      0.00000000	      0.00000000	      1.82649072	      0.00000000	     -0.22213721	      0.00000000	     -1.34509949	      0.00000000	      0.00000000	      0.00000000	      0.00000000	      1.21238697	      0.65028262	     -0.16258672	      1.20780408	      0.66586381	     -0.10017637	      1.20306075	      0.64935279	     -0.22482707	      1.35761392	      0.38275006	     -0.13716628	      1.12531471	      0.33949554	     -0.22699659	      1.34257913	      0.05584001	     -0.11701236	      0.85393804	      0.16429473	     -0.23335880	      1.27114761	      0.72017503	     -0.17328985	      1.27468371	      0.73248380	     -0.08036417	      1.26761150	      0.70786631	     -0.26621553	      1.12581348	      0.76180828	     -0.15137665	      1.12327278	      0.75105166	     -0.20484208	      1.36764467	      0.38159305	     -0.08768602	      1.11553872	      0.34229124	     -0.27595177	      1.35282600	      0.37808093	     -0.18309221	      1.14689410	      0.32608265	     -0.17444055	      1.34503090	      0.05778348	     -0.08365878	      0.85105288	      0.16999488	     -0.26726210	      1.34128237	      0.06296738	     -0.14485914	      0.85184813	      0.17294398	     -0.20555085	      1.14835238	      1.10061383	     -0.16456434	      1.22670245	      1.05826116	     -0.09972387	      1.23313236	      1.06661630	     -0.22775295	      1.22528267	      1.05123627	     -0.16747095	      1.25713456	      0.91045189	     -0.17412040	      1.34025168	      0.46296158	      0.00027118	      1.27785838	      0.41693342	     -0.28752071	      1.33567309	      0.53177375	     -0.06543916	      1.23885441	      0.47556967	     -0.21272071	      1.37789571	      0.46256286	     -0.08856253	      1.20739436	      0.39295802	     -0.20792261	      1.35435665	      0.16042769	     -0.01589573	      0.98092711	      0.14490390	     -0.27316019	      1.35746610	      0.21402821	     -0.07940792	      0.99538565	      0.22208621	     -0.25214690	      1.44108033	      0.03877816	     -0.12256388	      0.84284073	      0.06896748	     -0.22697833
